<?xml version="1.0" encoding="utf-8"?>
<!-- Generator: Adobe Illustrator 26.0.2, SVG Export Plug-In . SVG Version: 6.00 Build 0)  -->
<svg version="1.1" id="Layer_1" xmlns="http://www.w3.org/2000/svg" xmlns:xlink="http://www.w3.org/1999/xlink" x="0px" y="0px"
	 viewBox="0 0 595.3 841.9" style="enable-background:new 0 0 595.3 841.9;" xml:space="preserve">
<style type="text/css">
	.st0{fill:#5565FF;}
	.st1{fill:#F1F1F2;fill-opacity:6.000000e-02;}
	.st2{fill:#5599FF;}
	.st3{fill:#3B2314;fill-opacity:6.000000e-02;}
	.st4{fill:#3B2314;fill-opacity:0.26;}
</style>
<image style="display:none;overflow:visible;" width="513" height="654" xlink:href="DF6FF460.jpg"  transform="matrix(1.4526 0 0 1.4526 -99.6545 -73.7223)">
</image>
<polygon class="st0" points="595.3,841.9 595.3,0 99.2,0 43.2,841.9 "/>
<g id="Layer_11">
	<path class="st1" d="M500.2,841.9l95.6-24.1V383.7l-19.3-76.4c-4.7-18.5-23.6-29.8-42.1-25.1L72.8,398.4L43.3,841.9H500.2z"/>
</g>
<g id="Layer_10">
	<path class="st2" d="M43.2,841.9h552.1V321.4L567,291.3c-12.2-13-32.9-13.7-45.9-1.4L15.4,764.8c-13,12.2-13.7,32.9-1.4,45.9
		L43.2,841.9z"/>
</g>
<g id="Layer_5">
	<path class="st3" d="M595.3,841.9V502.4l-86.5-55.4c-16-10.3-37.6-5.6-47.8,10.5L214.6,841.9H595.3z"/>
</g>
<g id="Layer_6">
	<path class="st1" d="M595.3,0h-266l-16.7,110.4c-2.8,18.8,10.2,36.6,29.1,39.4l253.6,38.3V0z"/>
</g>
<g id="Layer_7">
</g>
<g id="Layer_9">
	<g id="Layer_8">
		<path class="st0" d="M31.2,0l5,23.7l11.7,58.2c3.7,18.7,22.1,30.9,40.8,27.1l456-91.5c10.4-2.1,18.9-8.8,23.6-17.5H31.2z"/>
	</g>
	<g id="Layer_8_copy">
		<path class="st4" d="M31.2,0l5.2,23.7L48,81.9c3.7,18.7,22.1,30.9,40.8,27.1l456-91.5c10.4-2.1,18.9-8.8,23.6-17.5H31.2z"/>
	</g>
</g>
</svg>
